<mxfile>
    <diagram id="G1V3pOo-ynbbTo61WeKQ" name="Page-1">
        <mxGraphModel dx="311" dy="298" grid="1" gridSize="10" guides="1" tooltips="1" connect="1" arrows="1" fold="1" page="1" pageScale="1" pageWidth="827" pageHeight="1169" math="0" shadow="0">
            <root>
                <mxCell id="0"/>
                <mxCell id="1" parent="0"/>
                <mxCell id="2" value="TransportFactory" style="rounded=0;whiteSpace=wrap;html=1;" parent="1" vertex="1">
                    <mxGeometry x="520" y="360" width="120" height="40" as="geometry"/>
                </mxCell>
                <mxCell id="3" value="+createBike()&lt;br&gt;+createCar()" style="rounded=0;whiteSpace=wrap;html=1;" parent="1" vertex="1">
                    <mxGeometry x="520" y="400" width="120" height="40" as="geometry"/>
                </mxCell>
                <mxCell id="4" value="HondaFactory" style="rounded=0;whiteSpace=wrap;html=1;" parent="1" vertex="1">
                    <mxGeometry x="520" y="240" width="120" height="40" as="geometry"/>
                </mxCell>
                <mxCell id="5" value="BMWFactory" style="rounded=0;whiteSpace=wrap;html=1;" parent="1" vertex="1">
                    <mxGeometry x="520" y="500" width="120" height="40" as="geometry"/>
                </mxCell>
                <mxCell id="6" value="+createBike()&lt;br&gt;+createCar()" style="rounded=0;whiteSpace=wrap;html=1;" parent="1" vertex="1">
                    <mxGeometry x="520" y="540" width="120" height="40" as="geometry"/>
                </mxCell>
                <mxCell id="7" value="+createBike()&lt;br&gt;+createCar()" style="rounded=0;whiteSpace=wrap;html=1;" parent="1" vertex="1">
                    <mxGeometry x="520" y="280" width="120" height="40" as="geometry"/>
                </mxCell>
                <mxCell id="13" value="" style="endArrow=classic;html=1;exitX=0.5;exitY=0;exitDx=0;exitDy=0;entryX=0.5;entryY=1;entryDx=0;entryDy=0;" parent="1" source="5" target="3" edge="1">
                    <mxGeometry width="50" height="50" relative="1" as="geometry">
                        <mxPoint x="530" y="470" as="sourcePoint"/>
                        <mxPoint x="580" y="450" as="targetPoint"/>
                    </mxGeometry>
                </mxCell>
                <mxCell id="14" value="" style="endArrow=classic;html=1;exitX=0.5;exitY=1;exitDx=0;exitDy=0;" parent="1" source="7" edge="1">
                    <mxGeometry width="50" height="50" relative="1" as="geometry">
                        <mxPoint x="530" y="470" as="sourcePoint"/>
                        <mxPoint x="580" y="360" as="targetPoint"/>
                    </mxGeometry>
                </mxCell>
                <mxCell id="16" value="HondaCar" style="rounded=0;whiteSpace=wrap;html=1;" parent="1" vertex="1">
                    <mxGeometry x="360" y="200" width="80" height="40" as="geometry"/>
                </mxCell>
                <mxCell id="17" value="HondaBike" style="rounded=0;whiteSpace=wrap;html=1;" parent="1" vertex="1">
                    <mxGeometry x="200" y="200" width="80" height="40" as="geometry"/>
                </mxCell>
                <mxCell id="34" value="BMWCar" style="rounded=0;whiteSpace=wrap;html=1;" parent="1" vertex="1">
                    <mxGeometry x="360" y="530" width="80" height="40" as="geometry"/>
                </mxCell>
                <mxCell id="35" value="BMWBike" style="rounded=0;whiteSpace=wrap;html=1;" parent="1" vertex="1">
                    <mxGeometry x="200" y="530" width="80" height="40" as="geometry"/>
                </mxCell>
                <mxCell id="38" value="Bike" style="rounded=0;whiteSpace=wrap;html=1;" parent="1" vertex="1">
                    <mxGeometry x="190" y="340" width="100" height="40" as="geometry"/>
                </mxCell>
                <mxCell id="39" value="Car" style="rounded=0;whiteSpace=wrap;html=1;" parent="1" vertex="1">
                    <mxGeometry x="350" y="340" width="100" height="40" as="geometry"/>
                </mxCell>
                <mxCell id="42" value="-constructor()&lt;br&gt;-super()" style="rounded=0;whiteSpace=wrap;html=1;" parent="1" vertex="1">
                    <mxGeometry x="360" y="240" width="80" height="50" as="geometry"/>
                </mxCell>
                <mxCell id="43" value="-constructor()&lt;br&gt;-super()" style="rounded=0;whiteSpace=wrap;html=1;" parent="1" vertex="1">
                    <mxGeometry x="200" y="240" width="80" height="50" as="geometry"/>
                </mxCell>
                <mxCell id="44" value="-constructor()&lt;br&gt;-super()" style="rounded=0;whiteSpace=wrap;html=1;" parent="1" vertex="1">
                    <mxGeometry x="360" y="570" width="80" height="50" as="geometry"/>
                </mxCell>
                <mxCell id="45" value="-constructor()&lt;br&gt;-super()" style="rounded=0;whiteSpace=wrap;html=1;" parent="1" vertex="1">
                    <mxGeometry x="200" y="570" width="80" height="50" as="geometry"/>
                </mxCell>
                <mxCell id="46" value="-constructor()" style="rounded=0;whiteSpace=wrap;html=1;" parent="1" vertex="1">
                    <mxGeometry x="190" y="380" width="100" height="40" as="geometry"/>
                </mxCell>
                <mxCell id="47" value="+getInfo()" style="rounded=0;whiteSpace=wrap;html=1;" parent="1" vertex="1">
                    <mxGeometry x="190" y="420" width="100" height="40" as="geometry"/>
                </mxCell>
                <mxCell id="49" value="-constructor()" style="rounded=0;whiteSpace=wrap;html=1;" parent="1" vertex="1">
                    <mxGeometry x="350" y="380" width="100" height="40" as="geometry"/>
                </mxCell>
                <mxCell id="50" value="+getInfo()" style="rounded=0;whiteSpace=wrap;html=1;" parent="1" vertex="1">
                    <mxGeometry x="350" y="420" width="100" height="40" as="geometry"/>
                </mxCell>
                <mxCell id="51" value="" style="endArrow=none;dashed=1;html=1;dashPattern=1 3;strokeWidth=2;exitX=0.5;exitY=1;exitDx=0;exitDy=0;exitPerimeter=0;" parent="1" source="6" edge="1">
                    <mxGeometry width="50" height="50" relative="1" as="geometry">
                        <mxPoint x="580" y="590" as="sourcePoint"/>
                        <mxPoint x="240" y="630" as="targetPoint"/>
                        <Array as="points">
                            <mxPoint x="580" y="660"/>
                            <mxPoint x="400" y="660"/>
                            <mxPoint x="240" y="660"/>
                        </Array>
                    </mxGeometry>
                </mxCell>
                <mxCell id="64" value="use" style="edgeLabel;html=1;align=center;verticalAlign=middle;resizable=0;points=[];" vertex="1" connectable="0" parent="51">
                    <mxGeometry x="0.1408" y="1" relative="1" as="geometry">
                        <mxPoint x="-3" as="offset"/>
                    </mxGeometry>
                </mxCell>
                <mxCell id="52" value="" style="endArrow=none;dashed=1;html=1;dashPattern=1 3;strokeWidth=2;" parent="1" edge="1">
                    <mxGeometry width="50" height="50" relative="1" as="geometry">
                        <mxPoint x="400" y="660" as="sourcePoint"/>
                        <mxPoint x="400" y="630" as="targetPoint"/>
                    </mxGeometry>
                </mxCell>
                <mxCell id="53" value="" style="endArrow=classic;html=1;" parent="1" edge="1">
                    <mxGeometry width="50" height="50" relative="1" as="geometry">
                        <mxPoint x="400" y="630" as="sourcePoint"/>
                        <mxPoint x="400" y="620" as="targetPoint"/>
                    </mxGeometry>
                </mxCell>
                <mxCell id="54" value="" style="endArrow=classic;html=1;entryX=0.5;entryY=1;entryDx=0;entryDy=0;" parent="1" target="45" edge="1">
                    <mxGeometry width="50" height="50" relative="1" as="geometry">
                        <mxPoint x="240" y="630" as="sourcePoint"/>
                        <mxPoint x="370" y="620" as="targetPoint"/>
                    </mxGeometry>
                </mxCell>
                <mxCell id="55" value="" style="endArrow=none;dashed=1;html=1;dashPattern=1 3;strokeWidth=2;entryX=0.5;entryY=0;entryDx=0;entryDy=0;" parent="1" target="4" edge="1">
                    <mxGeometry width="50" height="50" relative="1" as="geometry">
                        <mxPoint x="240" y="190" as="sourcePoint"/>
                        <mxPoint x="420" y="340" as="targetPoint"/>
                        <Array as="points">
                            <mxPoint x="240" y="160"/>
                            <mxPoint x="280" y="160"/>
                            <mxPoint x="580" y="160"/>
                        </Array>
                    </mxGeometry>
                </mxCell>
                <mxCell id="63" value="use" style="edgeLabel;html=1;align=center;verticalAlign=middle;resizable=0;points=[];" vertex="1" connectable="0" parent="55">
                    <mxGeometry x="-0.1526" y="1" relative="1" as="geometry">
                        <mxPoint as="offset"/>
                    </mxGeometry>
                </mxCell>
                <mxCell id="56" value="" style="endArrow=none;dashed=1;html=1;dashPattern=1 3;strokeWidth=2;" parent="1" edge="1">
                    <mxGeometry width="50" height="50" relative="1" as="geometry">
                        <mxPoint x="400" y="190" as="sourcePoint"/>
                        <mxPoint x="400" y="160" as="targetPoint"/>
                    </mxGeometry>
                </mxCell>
                <mxCell id="57" value="" style="endArrow=classic;html=1;" parent="1" edge="1">
                    <mxGeometry width="50" height="50" relative="1" as="geometry">
                        <mxPoint x="400" y="190" as="sourcePoint"/>
                        <mxPoint x="400" y="200" as="targetPoint"/>
                    </mxGeometry>
                </mxCell>
                <mxCell id="58" value="" style="endArrow=classic;html=1;entryX=0.5;entryY=0;entryDx=0;entryDy=0;" parent="1" target="17" edge="1">
                    <mxGeometry width="50" height="50" relative="1" as="geometry">
                        <mxPoint x="240" y="190" as="sourcePoint"/>
                        <mxPoint x="440" y="230" as="targetPoint"/>
                    </mxGeometry>
                </mxCell>
                <mxCell id="59" value="" style="endArrow=classic;html=1;entryX=0.5;entryY=0;entryDx=0;entryDy=0;" parent="1" target="39" edge="1">
                    <mxGeometry width="50" height="50" relative="1" as="geometry">
                        <mxPoint x="400" y="290" as="sourcePoint"/>
                        <mxPoint x="450" y="340" as="targetPoint"/>
                    </mxGeometry>
                </mxCell>
                <mxCell id="60" value="" style="endArrow=classic;html=1;entryX=0.5;entryY=1;entryDx=0;entryDy=0;exitX=0.5;exitY=0;exitDx=0;exitDy=0;" parent="1" source="34" target="50" edge="1">
                    <mxGeometry width="50" height="50" relative="1" as="geometry">
                        <mxPoint x="380" y="530" as="sourcePoint"/>
                        <mxPoint x="430" y="480" as="targetPoint"/>
                    </mxGeometry>
                </mxCell>
                <mxCell id="61" value="" style="endArrow=classic;html=1;entryX=0.5;entryY=1;entryDx=0;entryDy=0;" parent="1" target="47" edge="1">
                    <mxGeometry width="50" height="50" relative="1" as="geometry">
                        <mxPoint x="240" y="530" as="sourcePoint"/>
                        <mxPoint x="290" y="480" as="targetPoint"/>
                    </mxGeometry>
                </mxCell>
                <mxCell id="62" value="" style="endArrow=classic;html=1;exitX=0.5;exitY=1;exitDx=0;exitDy=0;entryX=0.5;entryY=0;entryDx=0;entryDy=0;" parent="1" source="43" target="38" edge="1">
                    <mxGeometry width="50" height="50" relative="1" as="geometry">
                        <mxPoint x="240" y="340" as="sourcePoint"/>
                        <mxPoint x="290" y="310" as="targetPoint"/>
                    </mxGeometry>
                </mxCell>
            </root>
        </mxGraphModel>
    </diagram>
</mxfile>